<svg width="20" height="20" viewBox="0 0 20 20" fill="none" xmlns="http://www.w3.org/2000/svg">
<path d="M15.5626 19.1486C15.4005 19.1485 15.2408 19.1091 15.0973 19.0338L10.0001 16.3541L4.90296 19.0338C4.73778 19.1206 4.55161 19.1595 4.3655 19.146C4.17938 19.1326 4.00074 19.0673 3.84977 18.9577C3.6988 18.848 3.58152 18.6983 3.51119 18.5254C3.44086 18.3526 3.42028 18.1635 3.45178 17.9796L4.42542 12.3038L0.301885 8.28483C0.168302 8.15455 0.0738231 7.9895 0.0291246 7.80833C-0.0155739 7.62717 -0.00870976 7.43711 0.0489412 7.25965C0.106592 7.08218 0.212732 6.92437 0.355365 6.80406C0.497998 6.68376 0.671438 6.60574 0.856085 6.57883L6.55482 5.7507L9.10312 0.587043C9.19523 0.431095 9.3264 0.301856 9.4837 0.212075C9.64099 0.122293 9.81898 0.0750732 10.0001 0.0750732C10.1812 0.0750732 10.3592 0.122293 10.5165 0.212075C10.6738 0.301856 10.805 0.431095 10.8971 0.587043L13.4454 5.75061L19.1441 6.57874C19.3288 6.60565 19.5022 6.68367 19.6449 6.80398C19.7875 6.92428 19.8936 7.08209 19.9513 7.25956C20.0089 7.43702 20.0158 7.62708 19.9711 7.80824C19.9264 7.98941 19.8319 8.15446 19.6983 8.28474L15.5748 12.3037L16.5484 17.9795C16.573 18.1231 16.566 18.2703 16.5278 18.4108C16.4896 18.5514 16.4212 18.6819 16.3273 18.7932C16.2334 18.9045 16.1163 18.994 15.9842 19.0554C15.8521 19.1168 15.7082 19.1486 15.5626 19.1485L15.5626 19.1486Z" fill="#FFC700"/>
<path d="M19.9513 7.25939C19.8936 7.08196 19.7875 6.9242 19.6448 6.80392C19.5022 6.68364 19.3288 6.60564 19.1442 6.57873L13.4454 5.7506L10.8971 0.58703C10.8103 0.426496 10.6802 0.293467 10.5217 0.202986C10.3632 0.112505 10.1825 0.0681821 10.0001 0.0750296V16.3541L15.0973 19.0338C15.2625 19.1206 15.4486 19.1595 15.6348 19.146C15.8209 19.1326 15.9995 19.0673 16.1505 18.9577C16.3014 18.848 16.4187 18.6983 16.4891 18.5254C16.5594 18.3526 16.58 18.1635 16.5485 17.9796L15.5748 12.3038L19.6984 8.28482C19.832 8.15449 19.9264 7.9894 19.9711 7.80819C20.0158 7.62699 20.009 7.43689 19.9513 7.25939V7.25939Z" fill="#FFC700"/>
</svg>
